<?xml version="1.0" encoding="UTF-8" standalone="no"?>
<svg
   viewBox="0 0 20.678461 25.799999"
   width="20.678"
   height="25.8"
   version="1.1"
   id="svg913"
   sodipodi:docname="stalledDL.svg"
   inkscape:version="1.1.2 (0a00cf5339, 2022-02-04, custom)"
   xmlns:inkscape="http://www.inkscape.org/namespaces/inkscape"
   xmlns:sodipodi="http://sodipodi.sourceforge.net/DTD/sodipodi-0.dtd"
   xmlns="http://www.w3.org/2000/svg"
   xmlns:svg="http://www.w3.org/2000/svg">
  <defs
     id="defs917" />
  <sodipodi:namedview
     id="namedview915"
     pagecolor="#505050"
     bordercolor="#eeeeee"
     borderopacity="1"
     inkscape:pageshadow="0"
     inkscape:pageopacity="0"
     inkscape:pagecheckerboard="0"
     showgrid="false"
     inkscape:zoom="21.899225"
     inkscape:cx="10.342832"
     inkscape:cy="12.9"
     inkscape:window-width="1356"
     inkscape:window-height="738"
     inkscape:window-x="5"
     inkscape:window-y="25"
     inkscape:window-maximized="0"
     inkscape:current-layer="svg913" />
  <path
     fill="#aaaaaa"
     d="M20.2 14.4l-9 9c-.3.3-.5.4-.9.4s-.7-.1-.9-.4l-9-9c-.4-.4-.5-.8-.3-1.5.3-.5.7-.8 1.2-.8h5.2V3.3c0-.4.1-.7.4-.9.3-.3.5-.4.9-.4H13c.4 0 .7.1.9.4.2.2.4.5.4.9v9h5.2c.5-.1.9.1 1.1.7.2.5 0 1-.4 1.4z"
     id="path911" />
  <path
     style="fill:#aaffcc;stroke-width:0.999999"
     d="M 9.794867,23.680417 C 9.6687447,23.621351 8.1546669,22.134142 4.9029533,18.875314 -0.36485251,13.595983 0.01576393,14.028291 0.05487384,13.368818 0.06644199,13.173755 0.10818788,12.952513 0.14764247,12.877168 0.2638263,12.655296 0.59671658,12.346444 0.84357504,12.23149 l 0.22952226,-0.106881 2.728407,-4.57e-4 2.728407,-4.57e-4 2.74e-4,-4.5321233 C 6.5303679,4.4780421 6.5459413,3.0022754 6.5799653,2.8767931 6.6142103,2.7504921 6.7092297,2.6179652 6.8879411,2.4472452 7.35103,2.0048665 7.1037556,2.0336934 10.411327,2.0365122 c 2.126244,0.00181 2.939746,0.017004 3.049989,0.056959 0.201223,0.072928 0.513227,0.3872789 0.676059,0.6811446 l 0.132536,0.2391894 0.01246,4.6462831 0.01246,4.6462827 h 2.808738 c 2.280631,0 2.83701,0.01181 2.959095,0.06282 0.319877,0.133653 0.577748,0.604198 0.576884,1.052657 -0.001,0.521716 0.190987,0.310031 -4.922164,5.427035 -3.635324,3.638062 -4.74038,4.718531 -4.91547,4.806106 -0.286041,0.143068 -0.731819,0.154323 -1.0070518,0.02542 z"
     id="path992"
     transform="matrix(1.0000223,0,0,1.0000223,0,-2.8802818e-4)" />
  <path
     style="fill:#87de87;stroke-width:0.999999"
     d="M 10.023186,23.726883 C 9.9478404,23.70797 9.8348227,23.665403 9.7720351,23.632291 9.6372892,23.56123 1.6414336,15.598201 0.88847576,14.785203 0.60433955,14.47841 0.30360648,14.129082 0.22018003,14.00892 0.0819196,13.809777 0.06925911,13.763502 0.07712316,13.486031 0.08186833,13.318604 0.10709156,13.102366 0.13317479,13.0055 0.1934492,12.781658 0.57436346,12.392559 0.88453836,12.237993 L 1.1138608,12.123716 H 3.821886 6.5299113 L 6.5301396,9.9889378 C 6.5304136,7.3034026 6.5731658,3.1061938 6.602181,2.9143945 6.6277527,2.7453588 6.9540277,2.3620965 7.2054402,2.2057702 L 7.37469,2.1005309 10.297168,2.0868446 c 1.607363,-0.00753 2.992023,-9.409e-4 3.077024,0.014637 0.196982,0.0361 0.587387,0.4001254 0.750467,0.6997574 l 0.120952,0.2222271 0.0095,3.8537536 c 0.0052,2.1195644 0.01721,4.2082183 0.02657,4.6414523 l 0.01703,0.787699 1.675134,0.0053 c 0.921324,0.0029 2.223715,0.01834 2.894201,0.03425 l 1.219067,0.02892 0.159226,0.154423 c 0.217998,0.211423 0.352165,0.542491 0.361905,0.893037 0.01,0.358236 -0.04617,0.44495 -0.841756,1.300538 -1.107949,1.191511 -8.777866,8.801037 -8.967065,8.89646 -0.211068,0.106453 -0.578099,0.157307 -0.776283,0.107558 z"
     id="path1448"
     transform="matrix(1.0000223,0,0,1.0000223,0,-2.8802818e-4)" />
  <path
     style="fill:#aaffaa;stroke-width:0.999999"
     d="M 9.8729188,23.65344 C 9.7069595,23.581336 1.3467067,15.272435 0.69199581,14.528909 0.10142774,13.858227 0.08004523,13.816471 0.10953077,13.391468 c 0.0298045,-0.4296 0.087998,-0.549421 0.40958043,-0.843329 0.4932054,-0.450762 0.28606917,-0.424422 3.3376461,-0.424422 h 2.6704961 l 0.013036,-1.358496 c 0.00717,-0.747172 0.018085,-2.4989467 0.024255,-3.8928317 0.00617,-1.3938849 0.024035,-2.863115 0.039699,-3.2649557 0.031538,-0.8090592 0.050452,-0.8691413 0.3680134,-1.169023 0.3625179,-0.342336 0.067518,-0.3150478 3.4058352,-0.3150478 2.544534,0 3.02568,0.010222 3.134698,0.066597 0.07083,0.036629 0.225389,0.1740446 0.343461,0.305369 0.403458,0.4487424 0.365164,-0.054703 0.390829,5.1381427 0.01256,2.5408155 0.03949,4.6363135 0.05985,4.6566605 0.02036,0.02035 1.32093,0.04968 2.890158,0.06519 l 2.853144,0.0282 0.156392,0.151581 c 0.337297,0.326921 0.473653,0.889161 0.301759,1.244246 -0.155131,0.320458 -0.997647,1.196266 -4.69261,4.878037 -4.686892,4.670159 -4.975973,4.946843 -5.237214,5.012624 -0.274871,0.06921 -0.521524,0.06342 -0.7056366,-0.01657 z"
     id="path118"
     transform="matrix(1.0000223,0,0,1.0000223,0,-2.8802818e-4)" />
  <path
     style="fill:#ccffaa;stroke-width:0.999999"
     d="M 9.7332257,23.495097 C 9.3987582,23.230715 1.1167408,14.974574 0.66060612,14.450823 0.44832948,14.207079 0.24380227,13.948506 0.2061012,13.876216 0.10932043,13.690642 0.11801285,13.197275 0.22209394,12.968495 0.3466119,12.694794 0.81103573,12.285796 1.0718977,12.22011 1.2155014,12.18395 2.1393254,12.15704 3.9013155,12.1377 L 6.517511,12.10898 6.54627,11.739619 C 6.562087,11.536472 6.576386,10.085967 6.578046,8.5162771 6.581566,5.1852865 6.631473,3.0301588 6.7096931,2.8311444 6.7818651,2.6475184 7.1107173,2.3109287 7.2957764,2.2312714 7.4952259,2.1454204 10.08496,2.1038243 12.065227,2.1546654 l 1.448414,0.037187 0.276232,0.2733848 c 0.158876,0.1572374 0.297648,0.3415395 0.326639,0.4338053 0.0549,0.1747197 0.118856,3.6569448 0.126654,6.8958187 0.0025,1.0422738 0.01744,2.0314048 0.03319,2.1980678 l 0.02862,0.303024 0.25645,0.02656 c 0.141047,0.01461 1.427723,0.03988 2.859281,0.05615 l 2.602832,0.02959 0.153999,0.143126 c 0.222917,0.207177 0.370147,0.546127 0.370687,0.853389 5.98e-4,0.33983 -0.108916,0.505019 -0.879691,1.326901 -0.845069,0.901104 -8.195093,8.21908 -8.610952,8.573407 -0.394382,0.336028 -0.473526,0.371552 -0.827783,0.371552 -0.2421649,0 -0.2881994,-0.01683 -0.4965739,-0.18154 z"
     id="path82"
     transform="matrix(1.0000223,0,0,1.0000223,0,-2.8802818e-4)" />
</svg>
