<?xml version="1.0" encoding="UTF-8" standalone="no"?>
<svg
   viewBox="0 0 20.678461 25.799999"
   width="20.678"
   height="25.8"
   version="1.1"
   id="svg913"
   sodipodi:docname="stalledDL.svg"
   inkscape:version="1.1.2 (0a00cf5339, 2022-02-04, custom)"
   xmlns:inkscape="http://www.inkscape.org/namespaces/inkscape"
   xmlns:sodipodi="http://sodipodi.sourceforge.net/DTD/sodipodi-0.dtd"
   xmlns="http://www.w3.org/2000/svg"
   xmlns:svg="http://www.w3.org/2000/svg">
  <defs
     id="defs917" />
  <sodipodi:namedview
     id="namedview915"
     pagecolor="#505050"
     bordercolor="#eeeeee"
     borderopacity="1"
     inkscape:pageshadow="0"
     inkscape:pageopacity="0"
     inkscape:pagecheckerboard="0"
     showgrid="false"
     inkscape:zoom="21.899225"
     inkscape:cx="10.342832"
     inkscape:cy="12.9"
     inkscape:window-width="1366"
     inkscape:window-height="768"
     inkscape:window-x="0"
     inkscape:window-y="0"
     inkscape:window-maximized="0"
     inkscape:current-layer="svg913" />
  <path
     fill="#aaaaaa"
     d="M20.2 14.4l-9 9c-.3.3-.5.4-.9.4s-.7-.1-.9-.4l-9-9c-.4-.4-.5-.8-.3-1.5.3-.5.7-.8 1.2-.8h5.2V3.3c0-.4.1-.7.4-.9.3-.3.5-.4.9-.4H13c.4 0 .7.1.9.4.2.2.4.5.4.9v9h5.2c.5-.1.9.1 1.1.7.2.5 0 1-.4 1.4z"
     id="path911" />
  <path
     style="fill:#aaffcc;stroke-width:0.999999"
     d="M 9.794867,23.680417 C 9.6687447,23.621351 8.1546669,22.134142 4.9029533,18.875314 -0.36485251,13.595983 0.01576393,14.028291 0.05487384,13.368818 0.06644199,13.173755 0.10818788,12.952513 0.14764247,12.877168 0.2638263,12.655296 0.59671658,12.346444 0.84357504,12.23149 l 0.22952226,-0.106881 2.728407,-4.57e-4 2.728407,-4.57e-4 2.74e-4,-4.5321233 C 6.5303679,4.4780421 6.5459413,3.0022754 6.5799653,2.8767931 6.6142103,2.7504921 6.7092297,2.6179652 6.8879411,2.4472452 7.35103,2.0048665 7.1037556,2.0336934 10.411327,2.0365122 c 2.126244,0.00181 2.939746,0.017004 3.049989,0.056959 0.201223,0.072928 0.513227,0.3872789 0.676059,0.6811446 l 0.132536,0.2391894 0.01246,4.6462831 0.01246,4.6462827 h 2.808738 c 2.280631,0 2.83701,0.01181 2.959095,0.06282 0.319877,0.133653 0.577748,0.604198 0.576884,1.052657 -0.001,0.521716 0.190987,0.310031 -4.922164,5.427035 -3.635324,3.638062 -4.74038,4.718531 -4.91547,4.806106 -0.286041,0.143068 -0.731819,0.154323 -1.0070518,0.02542 z"
     id="path992"
     transform="matrix(1.0000223,0,0,1.0000223,0,-2.8802818e-4)" />
  <path
     style="fill:#87de87;stroke-width:0.999999"
     d="M 10.023186,23.726883 C 9.9478404,23.70797 9.8348227,23.665403 9.7720351,23.632291 9.6372892,23.56123 1.6414336,15.598201 0.88847576,14.785203 0.60433955,14.47841 0.30360648,14.129082 0.22018003,14.00892 0.0819196,13.809777 0.06925911,13.763502 0.07712316,13.486031 0.08186833,13.318604 0.10709156,13.102366 0.13317479,13.0055 0.1934492,12.781658 0.57436346,12.392559 0.88453836,12.237993 L 1.1138608,12.123716 H 3.821886 6.5299113 L 6.5301396,9.9889378 C 6.5304136,7.3034026 6.5731658,3.1061938 6.602181,2.9143945 6.6277527,2.7453588 6.9540277,2.3620965 7.2054402,2.2057702 L 7.37469,2.1005309 10.297168,2.0868446 c 1.607363,-0.00753 2.992023,-9.409e-4 3.077024,0.014637 0.196982,0.0361 0.587387,0.4001254 0.750467,0.6997574 l 0.120952,0.2222271 0.0095,3.8537536 c 0.0052,2.1195644 0.01721,4.2082183 0.02657,4.6414523 l 0.01703,0.787699 1.675134,0.0053 c 0.921324,0.0029 2.223715,0.01834 2.894201,0.03425 l 1.219067,0.02892 0.159226,0.154423 c 0.217998,0.211423 0.352165,0.542491 0.361905,0.893037 0.01,0.358236 -0.04617,0.44495 -0.841756,1.300538 -1.107949,1.191511 -8.777866,8.801037 -8.967065,8.89646 -0.211068,0.106453 -0.578099,0.157307 -0.776283,0.107558 z"
     id="path1448"
     transform="matrix(1.0000223,0,0,1.0000223,0,-2.8802818e-4)" />
</svg>
