<?xml version="1.0" encoding="UTF-8" standalone="no"?>
<svg
   viewBox="0 0 20.678461 25.799999"
   width="20.678"
   height="25.8"
   version="1.1"
   id="svg89"
   sodipodi:docname="stalledUP.old.svg"
   inkscape:version="1.1.2 (0a00cf5339, 2022-02-04, custom)"
   xmlns:inkscape="http://www.inkscape.org/namespaces/inkscape"
   xmlns:sodipodi="http://sodipodi.sourceforge.net/DTD/sodipodi-0.dtd"
   xmlns="http://www.w3.org/2000/svg"
   xmlns:svg="http://www.w3.org/2000/svg">
  <defs
     id="defs93" />
  <sodipodi:namedview
     id="namedview91"
     pagecolor="#505050"
     bordercolor="#eeeeee"
     borderopacity="1"
     inkscape:pageshadow="0"
     inkscape:pageopacity="0"
     inkscape:pagecheckerboard="0"
     showgrid="false"
     inkscape:zoom="20.736435"
     inkscape:cx="10.344112"
     inkscape:cy="12.9"
     inkscape:window-width="1366"
     inkscape:window-height="768"
     inkscape:window-x="0"
     inkscape:window-y="0"
     inkscape:window-maximized="0"
     inkscape:current-layer="svg89" />
  <path
     fill="#aaaaaa"
     d="M20.6 12.8c-.2.6-.6.8-1.1.7h-5.2v9c0 .4-.2.7-.4.9-.2.3-.5.4-.9.4H7.8c-.4 0-.6-.1-.9-.4-.3-.2-.4-.5-.4-.9v-8.8H1.3c-.5 0-.9-.3-1.2-.8-.2-.7-.1-1.1.3-1.5l9-9c.2-.3.5-.4.9-.4s.6.1.9.4l9 9c.4.4.6.9.4 1.4z"
     id="path87" />
  <path
     style="fill:#de87aa;stroke-width:0.999998"
     d="M 7.5712147,23.755101 C 7.2375359,23.685905 6.8057615,23.359977 6.6387386,23.051214 L 6.5343923,22.858317 6.5211615,18.264953 6.5079302,13.671588 H 3.8157408 c -1.8989193,0 -2.7404912,-0.01631 -2.85611475,-0.05536 C 0.72251895,13.536143 0.45644187,13.330403 0.25409774,13.070686 0.08737362,12.856688 0.07644107,12.820672 0.05741527,12.42273 0.04000375,12.058554 0.05182738,11.972357 0.14453645,11.7876 0.27811488,11.521396 9.5306441,2.2365099 9.7804875,2.1179515 9.9998029,2.0138795 10.528663,2.0135847 10.778131,2.1173954 c 0.1439,0.059881 1.389634,1.2771958 4.904349,4.792465 5.108752,5.1095576 4.95594,4.9410666 4.957048,5.4656646 5.74e-4,0.271308 -0.104345,0.583677 -0.268201,0.798503 -0.241782,0.316993 -0.110313,0.304663 -3.248601,0.304663 h -2.846923 l -0.01276,4.665701 c -0.01436,5.250385 0.02018,4.784635 -0.389284,5.249806 -0.351337,0.39914 -0.181523,0.379387 -3.336749,0.388142 -1.5383551,0.0043 -2.8729625,-0.008 -2.9657943,-0.02724 z"
     id="path1295"
     transform="matrix(1.0000223,0,0,1.0000223,0,-2.8802818e-4)" />
</svg>
